# xmcd
#
# Track frame offsets:
#	150
#	8318
#	17571
#	26881
#	36523
#	45589
#	55718
#	70044
#	80005
#	89267
#	99050
#	113249
#	122212
#	132479
#
# Disc length: 1884 seconds
#
# Revision: 1
# Processed by: cddbd v1.5.2PL0 Copyright (c) Steve Scherf et al.
# Submitted via: audiograbber 1.83.01
#
DISCID=ab075a0e
DTITLE=Fancy Dan and the Highshouters - Don't try this at home
DYEAR=2006
DGENRE=Rockabilly
TTITLE0=Don't try this at home
TTITLE1=George Nelson
TTITLE2=Rocket room
TTITLE3=Moon dawg
TTITLE4=Two ways
TTITLE5=Spinning the wax
TTITLE6=Before the sun goes down
TTITLE7=Music of 54
TTITLE8=Blue swingin' mama
TTITLE9=Trailer trash
TTITLE10=Flowerpot baby
TTITLE11=Rock'n roll guitar
TTITLE12=Die with your boots on
TTITLE13=Life begins at 4 o'clock
EXTD=
EXTT0=
EXTT1=
EXTT2=
EXTT3=
EXTT4=
EXTT5=
EXTT6=
EXTT7=
EXTT8=
EXTT9=
EXTT10=
EXTT11=
EXTT12=
EXTT13=
PLAYORDER=
